<?xml version="1.0" encoding="utf-8"?>
<!-- Generator: Adobe Illustrator 21.1.0, SVG Export Plug-In . SVG Version: 6.00 Build 0)  -->
<svg version="1.1"
	 id="svg2" inkscape:export-filename="/Users/iker/Desktop/md2" inkscape:export-xdpi="300" inkscape:export-ydpi="300" inkscape:version="0.91 r13725" sodipodi:docname="masterdreams-2017.svg" xmlns:cc="http://creativecommons.org/ns#" xmlns:dc="http://purl.org/dc/elements/1.1/" xmlns:inkscape="http://www.inkscape.org/namespaces/inkscape" xmlns:rdf="http://www.w3.org/1999/02/22-rdf-syntax-ns#" xmlns:sodipodi="http://sodipodi.sourceforge.net/DTD/sodipodi-0.dtd" xmlns:svg="http://www.w3.org/2000/svg"
	 xmlns="http://www.w3.org/2000/svg" xmlns:xlink="http://www.w3.org/1999/xlink" x="0px" y="0px" viewBox="0 0 237 107"
	 style="enable-background:new 0 0 237 107;" xml:space="preserve">
<style type="text/css">
	.st0{fill:#FFFFFF;}
	.st1{fill:#808080;}
</style>
<sodipodi:namedview  bordercolor="#666666" borderopacity="1.0" id="base" inkscape:current-layer="layer1" inkscape:cx="265.75967" inkscape:cy="483.30297" inkscape:document-units="px" inkscape:guide-bbox="true" inkscape:pageopacity="0.0" inkscape:pageshadow="2" inkscape:window-height="1031" inkscape:window-maximized="0" inkscape:window-width="1920" inkscape:window-x="-2" inkscape:window-y="0" inkscape:zoom="0.91052631" pagecolor="#ffffff" showgrid="false" showguides="true">
	</sodipodi:namedview>
<g id="text4201" transform="translate(0,-265.78035)">
	<path id="path4320" inkscape:connector-curvature="0" class="st0" d="M73.1,274.4h0.2c1.5,0.2,2.2,0.9,2.2,2.2v0.6
		c0,4.5-4.3,15.8-13,34C52.9,331.8,48,346.3,48,355v1.1l0.2,2.2l1.1-0.5c0.2,0.2,0.6,0.2,0.9,0.2v0.6c-0.3,0.7-1,1.1-2.2,1.1
		c-1.5,0-2.2-1.5-2.2-4.4c0-10.3,6.3-28.2,18.9-53.8c3.1-7.2,5.4-12.8,6.8-16.7c0.9-2,1.6-4.6,2-7.5c-0.2-1.3-0.6-2-0.9-2
		c-3.5,1.6-8.9,7.2-15.9,16.5l-18,25.1c-1.5,2-2.7,2.9-3.5,2.9H35c-1.2-0.2-1.7-0.6-1.7-1.6c0-1.4,1.3-9,3.7-22.6
		c0.2-1.5,0.2-2.6,0.2-3.3c-0.2-0.3-0.2-0.6-0.2-0.7c-1.9,2-4.4,6.2-7.7,12.8C22,319.5,17,329,14.1,333.4c-0.8,0.2-1.4,0.2-1.7,0.2
		c-0.6-0.2-0.9-0.4-0.9-0.6v-0.5c0-3.8,4-15.4,11.9-35c-0.7,0-1.3-0.2-1.6-0.5c0.6-1.2,1.7-2,3.1-2.6h1.3l0.2,0.9
		c-4.9,11.7-9,23-12.3,34.1h0.2c9.8-19.9,16.6-32.5,20.3-38c1-0.9,1.9-1.3,2.4-1.3h0.5c1.3,0,2,1,2,3.1c-0.3,3.3-1.6,10.9-3.8,22.9
		c-0.2,0.9-0.2,1.4-0.2,1.8c3-3.4,8.6-11.2,17.1-23.3c4-5.3,6.9-9,8.8-11.2C66.2,277.3,70,274.4,73.1,274.4L73.1,274.4z"/>
	<path id="path4322" inkscape:connector-curvature="0" sodipodi:nodetypes="ccccccccscccccccccccccccc" class="st0" d="M71.7,313
		c0.7-0.1,0.9,0.2,1.1,0.7c-1.7,4-2.6,6.7-2.6,7.9h0.2c1.6-0.9,3.7-2.2,6.2-4h0.2c0.2,0.2,0.6,0.2,0.9,0.2v0.6
		c-3.4,2.9-5.8,4.4-7.5,4.4h-0.7c-1.9,0.3-1.4-1.3-0.9-3.9v-0.2h-0.2c-1.3,1.8-2.6,2.7-3.9,2.7c-1.4,0.2-1.8-0.6-1.8-1.3
		c0.2-2,2.5-5,5.5-5.3c0.6,0.2,1.2,0.2,1.6,0.2C70.8,313.7,71.4,313,71.7,313z M64.7,319.8h0.2c2.2-1.9,3.3-3,3.3-3.3l-0.4-0.2h-0.5
		c-1.2,0.6-2,1.7-2.6,3.3V319.8z"/>
	<path id="path4324" inkscape:connector-curvature="0" sodipodi:nodetypes="csccccsccscccccccc" class="st0" d="M79.3,313.7
		c1,0,1.6,0.5,1.6,1.5c0,0.5-0.9,1.5-2.9,3.1c0.5,0.6,0.9,1.7,1.3,3.5c1,0,3.2-1.3,6.6-3.9h0.9c0.3,0,0.5,0.2,0.5,0.5v0.2
		c-2.5,2.4-5.3,4-8.2,4.9c-0.4,1.2-1.3,1.7-2.6,1.7h-1.3c-0.2-1.5,1.4-2.2,2.4-2.8c-0.2-2.6-2-3.5-2-5.7
		C76.1,314.5,77.2,313.6,79.3,313.7L79.3,313.7z M77.3,316.8c0.9-0.6,1.5-1.2,1.7-2h-0.2C77.8,315.2,77.3,315.9,77.3,316.8
		L77.3,316.8z"/>
	<path id="path4326" inkscape:connector-curvature="0" sodipodi:nodetypes="ccscccsccccccccscsscc" class="st0" d="M92.1,304.4h0.7
		c0.3,0.1,0.4,0.2,0.4,0.4c0,0.6-0.6,2.4-2,5.5h52.4c1.7,0.1,1.4,0.2,1.1,0.9c0,0-1.3,0.6-4,0.6h-0.9l-0.6-0.5H90.5
		c0,0.2-5.7,13.5-17,39.9c0.3,0,0.5,0.2,0.5,0.7c-0.9,2-1.8,3.1-2.7,3.1c-0.7-0.2-1.1-0.3-1.1-0.7l18.3-42.9h-14
		c-0.3,0-0.4-0.2-0.4-0.4c0.2-0.5,0.6-0.7,1.3-0.7h13.4c0.2,0,1.2-1.9,2.9-5.7L92.1,304.4z"/>
	<path id="path4328" inkscape:connector-curvature="0" sodipodi:nodetypes="ccccccsccccccccccc" class="st0" d="M96.3,316.5
		c0,0.8-1.7,1.7-4.9,2.6c-0.7,1.6-1.1,2.6-1.1,3.1h0.2c1.8-0.2,4.2-1.5,7.2-4.2h0.7c0.2,0.1,0.4,0.2,0.4,0.5v0.4
		c-1.1,2.1-10.2,7.3-10.5,3.1c0-0.8,0.4-1.7,1.1-2.7l-0.2-0.5v-0.5c0.3,0,1.2-1.9,3.3-3.1C93.9,314.7,96.2,314.7,96.3,316.5
		L96.3,316.5z M93.2,317.1h0.2l0.9-0.9C93.6,316.5,93.2,316.8,93.2,317.1L93.2,317.1z"/>
	<path id="path4330" inkscape:connector-curvature="0" sodipodi:nodetypes="ccccscccccccccscccccccc" class="st0" d="M99.4,312.2
		h0.2c2.7,0.5,1.7,2.2,1.3,4.2c0.9,0.3,1.4,0.9,1.6,0.9v0.9c0,0.3-0.2,1-0.7,2.2h0.2c2.9-2,4.6-3.1,5-3.1c1-0.2,0.6,0.6,0.7,0.9
		c-2,1.6-4,3.6-6.4,3.7c-1,0-1.6-0.6-1.6-1.5c0.4-1.4,0.6-2.2,0.6-2.4l-0.4-0.2c-2.8,4.9-4.8,8.6-6,11.2c0,0-0.7,0.8-1.4,0.6
		c-0.6-0.2-0.3-0.8-0.3-1c1.3-3.2,3.4-7.3,6.1-12.1c-0.4,0-0.8-0.7-1.1-2C97.2,313.2,98.5,312.2,99.4,312.2L99.4,312.2z M99.3,314.3
		l0.4,0.2v-0.6C99.3,313.8,99.3,314,99.3,314.3z"/>
	<path id="path4332" inkscape:connector-curvature="0" sodipodi:nodetypes="sscsccsccsscscscscccccccccscccs" class="st0" d="
		M161.9,278.4h2.4c4.3,0,7.2,2.7,8.6,8.1c0.3,1.5,0.5,2.9,0.5,4.4c0,11.2-5.4,22.6-16.3,34.4c-7.5,6.8-14.5,11-21.1,12.6
		c-4.1,1.3-9.3,2-15.6,2c-8.3,0-17-1.3-25.9-3.8c0-0.2-0.1-0.4-0.2-0.6c0.6-0.5,1.4-0.7,2.7-0.7h0.9c1.3,0,2,0.5,2,1.3
		c8.4,1.8,15.3,2.7,20.9,2.7c13.4,0,25-4.8,34.6-14.3c10.7-11.4,16-22.6,16-33.5c0-5.2-1.6-8.7-4.6-10.5c-1.1-0.6-2.4-0.9-3.7-0.9
		c-5.2,0-11,2.6-17.5,7.7c-6.1,5.7-10.4,10.9-13,15.4c-2.1,3.2-5,9.3-8.8,18l-6.8,14.5c-0.8,0.6-2,0.8-2-0.6
		c4-11.2,8.5-21,13.4-29.3c1-2,4.1-8.6,9-19.8c-0.2,0-0.6-0.2-0.9-0.4c0.4-0.9,1.2-1.9,2.4-2.9h1.3c0.3,0,0.5,0.2,0.5,0.7
		c-2.2,5.3-4,9.6-5.5,12.5h0.2C144.3,284.1,153.2,278.4,161.9,278.4L161.9,278.4z"/>
	<path id="path4334" inkscape:connector-curvature="0" sodipodi:nodetypes="cscccccscscccccccccccccc" class="st0" d="M170.3,312.2
		h0.2c1.3,0,2,0.7,2,2.2c-0.4,0.9-0.6,1.7-0.6,2c1,0.6,1.6,0.6,1.6,1.7c0,0.3-0.2,1-0.7,2.2h0.2c2.9-2,4.6-3.1,5-3.1h0.2
		c0.3,0.1,0.5,0.2,0.5,0.4v0.5c-2.4,2.4-4.5,3.5-6,3.5c-1,0-2,0.2-2-1.3c0.4-1.4,0.6-2.2,0.6-2.4l-0.4-0.2c-2.8,4.9-4.8,8.6-6,11.2
		c-1.1,0.6-2.2,0.6-1.7-0.4c1.3-3.2,3.4-7.3,6.1-12.1c-0.4,0-0.8-0.7-1.1-2C168.1,313.2,169.3,312.2,170.3,312.2L170.3,312.2z
		 M170.1,314.3l0.4,0.2v-0.6C170.2,313.8,170.1,314,170.1,314.3z"/>
	<path id="path4336" inkscape:connector-curvature="0" sodipodi:nodetypes="cccccccsccccccccccc" class="st0" d="M181.3,314.9
		c1.2-0.2,2.2,0.9,2.2,1.6c0,0.8-1.7,1.7-4.9,2.6c-0.7,1.6-1.1,2.6-1.1,3.1h0.2c1.8-0.2,4.2-1.5,7.2-4.2h0.7
		c0.2,0.1,0.4,0.2,0.4,0.5v0.4c-2.9,2.9-5.5,4.4-7.7,4.4c-1.2,0.1-3,0.2-2.8-1.3c0-0.8,0.4-1.7,1.1-2.7l-0.2-0.5v-0.5
		C178.5,316.9,178.7,315.2,181.3,314.9z M180.4,317.1h0.2l0.9-0.9C180.9,316.5,180.5,316.8,180.4,317.1L180.4,317.1z"/>
	<path id="path4338" inkscape:connector-curvature="0" sodipodi:nodetypes="cccccccccccscccsscsccccccccccc" class="st0" d="
		M192.8,313c0.6-0.5,0.9,0.1,1.1,0.5v0.2c-1.7,4-2.6,6.7-2.6,7.9h0.2c1.6-0.9,3.7-2.2,6.2-4h0.2c0.2,0.2,0.6,0.2,0.9,0.2v0.6
		c-3.4,2.9-5.8,4.4-7.5,4.4c-1.1,0.1-2-0.1-2-1.3v-0.2c0-1,0.2-1.8,0.5-2.4v-0.2h-0.2c-1.3,1.8-2.6,2.7-3.9,2.7h-0.5
		c-0.8,0-1.3-0.2-1.3-0.7v-0.6c0-1.7,1.1-3.3,3.3-4.6c0.8-0.4,1.5-0.6,2.2-0.6c0.6,0.2,1.2,0.2,1.6,0.2
		C191.9,313.7,192.6,313,192.8,313L192.8,313z M185.7,319.8h0.2c2.2-1.9,3.3-3,3.3-3.3l-0.4-0.2h-0.5c-1.2,0.6-2,1.7-2.6,3.3V319.8z
		"/>
	<path id="path4340" inkscape:connector-curvature="0" sodipodi:nodetypes="ssccccccscccccccsccsssccs" class="st0" d="M207.5,313.2
		h0.4c1,0,1.6,0.6,1.6,1.6c-1,4.7-1.7,6.1-1.3,6.8c0.5,0,2.4-1.3,5.5-3.7h0.5c0.2,0.2,0.5,0.2,0.6,0.2v0.4c-2.4,2.8-4.8,4.2-7.1,4.2
		c-0.9,0-1.4-0.6-1.5-1.7l1.5-6.4c-0.6,0.1-2,3.1-4.6,9.3c-0.9,1.2-2.4,1.4-2.9,0.2l2.2-7.7c-1.7,2.8-3.1,4.8-4.4,6h-2v-0.9
		c0-1.5,0.6-2.8,1.7-3.8c0.7,0,1.1,0.2,1.1,0.6c1.8-2.8,3.1-4.2,3.8-4.2h0.2c0.9,0,1.3,0.6,1.3,1.6v1.1h0.2
		C205.2,314.4,206.3,313.2,207.5,313.2L207.5,313.2z"/>
	<path id="path4342" inkscape:connector-curvature="0" sodipodi:nodetypes="cccccccccccccccc" class="st0" d="M215.2,313.7
		c1.7-0.2,2.4,0.5,2.4,1.5c0,0.5-0.9,1.5-2.9,3.1c0.5,0.6,0.9,1.7,1.3,3.5c1,0,3.2-1.3,6.6-3.9c0.9-0.6,1.5-0.6,1.3,0.6
		c-2.5,2.4-5.3,4-8.2,4.9c-0.4,1.2-1.3,1.7-2.6,1.7c-1.1,0-1.5,0.3-1.3-0.9c0.5-0.7,1.3-1.4,2.4-2c0-0.8-0.6-2.5-2-5
		C212.3,315.4,213.9,313.7,215.2,313.7z M214.1,316.8c0.9-0.6,1.5-1.2,1.7-2h-0.2C214.6,315.2,214.1,315.9,214.1,316.8z"/>
</g>
<g id="text4159" transform="matrix(0.54541974,0,0,0.54541974,243.56585,-137.18296)">
	<path id="path4164" inkscape:connector-curvature="0" class="st1" d="M-228.1,406.4h2.7c0.8,0,1.5-0.2,2-0.4
		c0.6-0.2,0.9-0.6,1.3-0.9c0.3-0.4,0.6-0.8,0.6-1.3c0.2-0.5,0.2-0.9,0.2-1.3c0-0.5-0.1-0.9-0.3-1.3c-0.2-0.5-0.4-0.9-0.8-1.2
		c-0.3-0.3-0.8-0.6-1.3-0.9c-0.6-0.2-1.1-0.3-1.8-0.3h-2.7v7.6H-228.1z M-229.8,415.2v-17.9h4.3c0.8,0,1.5,0.1,2.2,0.3
		s1.3,0.6,1.9,0.9c0.6,0.5,1,0.9,1.3,1.7c0.3,0.6,0.5,1.4,0.5,2.4c0,0.7-0.1,1.3-0.3,2c-0.2,0.6-0.6,1.3-1,1.7
		c-0.5,0.5-1,0.9-1.8,1.3c-0.7,0.3-1.7,0.5-2.7,0.5h-2.7v7.2L-229.8,415.2L-229.8,415.2z"/>
	<path id="path4166" inkscape:connector-curvature="0" class="st1" d="M-215.9,415.2v-17.9h1.7v8.1h10.2v-8.1h1.7c0,0.6,0,1.3,0,2.3
		c0,0.9,0,2,0,3.1s0,2.3,0,3.5s0,2.4,0,3.5s0,2.2,0,3.1c0,0.9,0,1.7,0,2.3h-1.7v-8.3h-10.2v8.3h-1.7V415.2z"/>
	<path id="path4168" inkscape:connector-curvature="0" class="st1" d="M-198.4,406.2c0-1.3,0.2-2.4,0.7-3.5s1.2-2.1,2-2.9
		c0.9-0.9,1.8-1.5,2.9-2c1.1-0.5,2.3-0.7,3.5-0.7c1.3,0,2.4,0.2,3.5,0.7s2.1,1.2,2.9,2c0.9,0.9,1.5,1.8,2,2.9
		c0.5,1.1,0.7,2.3,0.7,3.5s-0.2,2.4-0.7,3.5s-1.2,2-2,2.9c-0.8,0.8-1.8,1.5-2.9,2c-1.1,0.5-2.3,0.7-3.5,0.7c-1.3,0-2.4-0.2-3.5-0.7
		s-2-1.2-2.9-2c-0.8-0.9-1.5-1.8-2-2.9S-198.4,407.5-198.4,406.2z M-196.8,406.2c0,1,0.2,2,0.6,2.9c0.4,0.9,0.9,1.7,1.6,2.4
		c0.7,0.7,1.5,1.2,2.4,1.6c0.9,0.4,1.9,0.6,2.9,0.6s2-0.2,2.9-0.6c0.9-0.4,1.7-0.9,2.4-1.6c0.7-0.7,1.3-1.5,1.6-2.4
		c0.4-0.9,0.6-1.9,0.6-2.9s-0.2-2-0.6-2.9c-0.4-0.9-0.9-1.7-1.6-2.4s-1.5-1.3-2.4-1.6c-0.9-0.4-1.9-0.6-2.9-0.6s-2,0.2-2.9,0.6
		c-0.9,0.4-1.7,0.9-2.4,1.6c-0.7,0.7-1.2,1.5-1.6,2.4C-196.5,404.2-196.8,405.2-196.8,406.2z"/>
	<path id="path4170" inkscape:connector-curvature="0" class="st1" d="M-167.2,397.2v1.7h-4.8v16.3h-1.7v-16.4h-4.7v-1.7
		L-167.2,397.2L-167.2,397.2z"/>
	<path id="path4172" inkscape:connector-curvature="0" class="st1" d="M-165.7,406.2c0-1.3,0.2-2.4,0.7-3.5s1.2-2.1,2-2.9
		c0.9-0.9,1.8-1.5,2.9-2c1.1-0.5,2.3-0.7,3.5-0.7s2.4,0.2,3.5,0.7c1.1,0.5,2.1,1.2,2.9,2c0.9,0.9,1.5,1.8,2,2.9
		c0.5,1.1,0.7,2.3,0.7,3.5s-0.2,2.4-0.7,3.5s-1.2,2-2,2.9c-0.8,0.8-1.8,1.5-2.9,2c-1.1,0.5-2.3,0.7-3.5,0.7s-2.4-0.2-3.5-0.7
		c-1.1-0.5-2-1.2-2.9-2c-0.8-0.9-1.5-1.8-2-2.9C-165.4,408.6-165.7,407.5-165.7,406.2z M-163.9,406.2c0,1,0.2,2,0.6,2.9
		c0.4,0.9,0.9,1.7,1.6,2.4s1.5,1.2,2.4,1.6c0.9,0.4,1.9,0.6,2.9,0.6s2-0.2,2.9-0.6c0.9-0.4,1.7-0.9,2.4-1.6c0.7-0.7,1.3-1.5,1.6-2.4
		c0.4-0.9,0.6-1.9,0.6-2.9s-0.2-2-0.6-2.9c-0.4-0.9-0.9-1.7-1.6-2.4s-1.5-1.3-2.4-1.6c-0.9-0.4-1.9-0.6-2.9-0.6s-2,0.2-2.9,0.6
		c-0.9,0.4-1.7,0.9-2.4,1.6c-0.7,0.7-1.2,1.5-1.6,2.4C-163.8,404.2-163.9,405.2-163.9,406.2z"/>
	<path id="path4174" inkscape:connector-curvature="0" class="st1" d="M-130.5,406.9v7.2c-0.7,0.4-1.5,0.7-2.4,0.9
		c-0.9,0.2-1.8,0.3-2.8,0.3c-1.4,0-2.7-0.2-3.9-0.7c-1.1-0.5-2.1-1.1-2.9-1.9s-1.4-1.7-1.8-2.8c-0.5-1.1-0.6-2.3-0.6-3.5
		c0-1.3,0.2-2.6,0.7-3.8s1.2-2.1,2-3s1.8-1.5,3-2s2.4-0.7,3.6-0.7c0.9,0,1.7,0.1,2.6,0.3s1.7,0.6,2.4,0.9l-0.9,1.4
		c-0.6-0.3-1.2-0.6-2-0.8c-0.7-0.2-1.5-0.3-2.2-0.3c-1,0-2,0.2-2.9,0.6c-0.9,0.4-1.7,0.9-2.4,1.7c-0.7,0.7-1.3,1.5-1.7,2.4
		s-0.6,2-0.6,3s0.2,2,0.6,2.8c0.4,0.9,0.9,1.7,1.6,2.4c0.6,0.7,1.4,1.2,2.4,1.6s2,0.6,3.1,0.6c0.6,0,1.1-0.1,1.7-0.2
		c0.6-0.2,1.2-0.3,1.7-0.6v-4.6h-3.9v-1.5h5.5v0.3H-130.5z"/>
	<path id="path4176" inkscape:connector-curvature="0" class="st1" d="M-126.3,415.2v-17.9h4.3c0.8,0,1.5,0.1,2.2,0.3
		s1.3,0.6,1.9,0.9c0.6,0.5,1,0.9,1.3,1.7c0.3,0.6,0.5,1.4,0.5,2.4s-0.2,2-0.7,2.8s-1.2,1.6-2.2,2.1c0.2,0.2,0.3,0.6,0.6,1
		c0.2,0.4,0.6,0.9,0.9,1.4s0.6,1,0.9,1.6s0.6,1,0.9,1.6c0.3,0.5,0.6,0.9,0.9,1.3c0.2,0.4,0.5,0.7,0.6,0.9h-2.1
		c-0.2-0.2-0.3-0.5-0.6-0.9c-0.2-0.3-0.5-0.7-0.7-1.2s-0.6-0.9-0.9-1.4s-0.6-0.9-0.9-1.4s-0.6-0.9-0.9-1.3c-0.2-0.4-0.5-0.8-0.6-1.1
		c-0.2,0-0.3,0.1-0.6,0.1c-0.2,0-0.4,0-0.6,0h-2.4v7.2h-1.7v-0.1H-126.3z M-124.5,406.4h2.7c0.8,0,1.5-0.2,2-0.4
		c0.6-0.2,0.9-0.6,1.3-0.9c0.3-0.4,0.6-0.8,0.6-1.3c0.2-0.5,0.2-0.9,0.2-1.3c0-0.5-0.1-0.9-0.3-1.3c-0.2-0.5-0.4-0.8-0.8-1.2
		c-0.3-0.3-0.8-0.6-1.3-0.9c-0.6-0.2-1.1-0.3-1.8-0.3h-2.6V406.4L-124.5,406.4z"/>
	<path id="path4178" inkscape:connector-curvature="0" class="st1" d="M-99.5,415.2c-0.3-0.8-0.7-1.7-1.2-2.8s-0.9-2.3-1.4-3.5h-6.9
		c-0.5,1.3-0.9,2.4-1.4,3.5s-0.9,2-1.2,2.8h-1.7c0.2-0.6,0.6-1.4,1-2.4s0.9-2.1,1.3-3.3c0.5-1.2,1-2.4,1.5-3.7
		c0.6-1.3,1-2.5,1.5-3.7c0.5-1.2,0.9-2.3,1.3-3.3s0.8-1.8,1-2.4c0.2,0.6,0.6,1.4,1,2.4s0.9,2,1.3,3.3c0.5,1.2,1,2.4,1.5,3.7
		c0.6,1.3,1,2.5,1.6,3.7c0.5,1.2,0.9,2.3,1.3,3.3c0.4,1,0.8,1.8,1,2.4H-99.5L-99.5,415.2z M-105.8,400.8c-0.3,0.8-0.7,1.7-1.2,2.9
		s-0.9,2.4-1.4,3.6h5.7c-0.5-1.3-0.9-2.4-1.4-3.6c-0.5-1.2-0.9-2.1-1.2-2.9c0-0.1-0.1-0.2-0.2-0.3c-0.1-0.2-0.1-0.3-0.2-0.5
		c0,0.2-0.1,0.3-0.2,0.5C-105.7,400.6-105.7,400.7-105.8,400.8L-105.8,400.8z"/>
	<path id="path4180" inkscape:connector-curvature="0" class="st1" d="M-93.1,406.4h2.7c0.8,0,1.5-0.2,2-0.4
		c0.6-0.2,0.9-0.6,1.3-0.9c0.3-0.4,0.6-0.8,0.6-1.3c0.2-0.5,0.2-0.9,0.2-1.3c0-0.5-0.1-0.9-0.3-1.3c-0.2-0.5-0.4-0.9-0.8-1.2
		c-0.3-0.3-0.8-0.6-1.3-0.9c-0.6-0.2-1.1-0.3-1.8-0.3h-2.7L-93.1,406.4L-93.1,406.4z M-94.8,415.2v-17.9h4.3c0.8,0,1.5,0.1,2.2,0.3
		c0.7,0.2,1.3,0.6,1.9,0.9c0.6,0.5,1,0.9,1.3,1.7c0.3,0.6,0.5,1.4,0.5,2.4c0,0.7-0.1,1.3-0.3,2c-0.2,0.6-0.6,1.3-1,1.7
		c-0.5,0.5-1,0.9-1.8,1.3c-0.8,0.3-1.7,0.5-2.7,0.5h-2.7v7.2L-94.8,415.2L-94.8,415.2z"/>
	<path id="path4182" inkscape:connector-curvature="0" class="st1" d="M-80.9,415.2v-17.9h1.7v8.1H-69v-8.1h1.7c0,0.6,0,1.3,0,2.3
		c0,0.9,0,2,0,3.1s0,2.3,0,3.5s0,2.4,0,3.5s0,2.2,0,3.1c0,0.9,0,1.7,0,2.3H-69v-8.3h-10.2v8.3h-1.7V415.2z"/>
	<path id="path4184" inkscape:connector-curvature="0" class="st1" d="M-55.8,408.9v6.3h-1.7v-6.3c-0.2-0.4-0.6-0.9-0.9-1.5
		s-0.7-1.3-1.2-2c-0.4-0.8-0.9-1.6-1.3-2.4c-0.5-0.8-0.9-1.6-1.3-2.4c-0.4-0.8-0.8-1.4-1.2-2c-0.3-0.6-0.6-1.1-0.9-1.5h2
		c0.3,0.5,0.7,1.2,1.1,1.9c0.5,0.8,0.9,1.6,1.4,2.4c0.5,0.9,1,1.7,1.5,2.6s0.9,1.7,1.3,2.4l0.3,0.8l0.3-0.8c0.4-0.7,0.9-1.6,1.3-2.4
		c0.4-0.8,0.9-1.7,1.4-2.6c0.5-0.9,0.9-1.7,1.3-2.4c0.5-0.8,0.8-1.4,1.1-1.9h2L-55.8,408.9L-55.8,408.9z"/>
</g>
</svg>
